<?xml version="1.0" standalone="no"?>
<!DOCTYPE svg PUBLIC "-//W3C//DTD SVG 20010904//EN"
 "http://www.w3.org/TR/2001/REC-SVG-20010904/DTD/svg10.dtd">
<svg version="1.0" xmlns="http://www.w3.org/2000/svg"
 width="569.000000pt" height="201.000000pt" viewBox="0 0 569.000000 201.000000"
 preserveAspectRatio="xMidYMid meet">

<g transform="translate(0.000000,201.000000) scale(0.100000,-0.100000)"
fill="#000000" stroke="none">
<path d="M565 1903 c-109 -14 -227 -77 -308 -162 -141 -151 -177 -317 -118
-548 44 -169 103 -246 235 -304 l53 -24 12 -82 c12 -76 11 -86 -8 -138 -16
-43 -21 -79 -21 -156 0 -71 -4 -101 -13 -103 -6 -3 -24 -7 -38 -10 -14 -3 -54
-30 -88 -61 -34 -30 -69 -56 -79 -56 -9 -1 -26 -2 -37 -3 -18 -1 -20 -8 -20
-61 0 -66 8 -85 35 -85 13 0 17 6 13 20 -12 47 60 105 200 161 45 17 87 37 93
43 6 6 21 51 34 99 13 49 28 91 35 93 6 3 36 -12 67 -32 l56 -37 -24 -36 c-16
-25 -24 -50 -24 -81 0 -25 -7 -74 -15 -110 -9 -36 -16 -72 -18 -80 -1 -11 14
-16 63 -22 78 -9 96 3 43 28 -51 25 -49 49 16 192 28 63 51 125 51 139 0 17
-18 43 -60 84 -33 32 -65 59 -70 59 -15 0 -12 57 6 116 l17 52 67 4 c55 3 75
9 110 33 23 17 51 34 62 40 10 5 24 21 30 35 6 14 31 41 55 59 61 47 130 147
161 234 36 99 37 241 4 339 -84 244 -325 395 -577 361z m231 -63 c71 -25 154
-78 182 -118 l21 -29 -75 -11 c-126 -20 -340 -109 -492 -204 -34 -22 -64 -39
-66 -37 -10 13 -35 93 -46 142 l-12 58 36 44 c20 24 50 54 66 65 l30 21 42
-30 c24 -16 63 -50 88 -75 40 -42 70 -58 70 -38 0 12 -88 95 -138 130 l-43 31
43 22 c103 53 197 62 294 29z m-333 -21 c-18 -11 -38 -19 -45 -17 -8 3 0 12
17 21 44 24 66 20 28 -4z m-63 -37 c0 -4 -21 -28 -46 -52 l-47 -45 7 30 c4 17
18 40 32 53 25 22 54 30 54 14z m-153 -205 c-36 -76 -55 -145 -63 -236 -7 -85
-17 -103 -28 -50 -24 119 10 265 88 374 l21 30 3 -33 c2 -19 -7 -53 -21 -85z
m788 43 c8 -16 15 -39 15 -52 0 -26 -76 -102 -168 -166 l-61 -42 -27 47 c-49
86 -85 134 -95 127 -6 -3 -3 -16 8 -32 43 -66 83 -137 83 -148 0 -15 -83 -64
-184 -108 -50 -21 -72 -36 -67 -44 5 -8 44 6 132 50 68 35 127 64 132 66 10 5
53 -93 72 -166 25 -97 21 -126 -21 -160 -69 -57 -77 -59 -131 -24 -47 31 -48
31 -51 10 -3 -13 6 -28 24 -43 l27 -22 -41 -10 c-44 -11 -92 -7 -92 9 0 6 11
19 25 30 51 40 20 129 -40 114 -31 -8 -46 -42 -38 -91 l6 -36 -39 7 c-21 3
-47 11 -57 16 -10 5 -40 16 -67 24 -47 14 -87 51 -119 111 -16 31 -16 30 38
38 85 12 148 31 128 40 -9 4 -37 2 -62 -4 -24 -6 -64 -11 -89 -11 l-44 0 -11
48 c-10 47 -10 47 32 90 23 24 54 52 68 63 l27 19 51 -88 c96 -162 148 -221
174 -196 3 3 -18 38 -47 78 -60 81 -136 208 -136 228 0 13 126 92 225 141 127
62 295 115 367 116 32 1 40 -4 53 -29z m-731 -125 l26 -80 -58 -52 -57 -51 -3
31 c-2 18 2 57 8 87 12 53 50 154 56 148 1 -2 14 -39 28 -83z m810 -4 c9 -39
16 -88 16 -109 0 -120 -59 -262 -144 -347 -84 -84 -99 -67 -25 28 90 114 133
247 127 398 -1 55 0 99 4 99 3 0 14 -31 22 -69z m-44 -49 c0 -86 -22 -177 -61
-255 -56 -113 -99 -153 -99 -92 0 26 -37 145 -63 206 l-16 36 73 51 c40 29 90
70 111 92 21 21 42 37 47 34 4 -3 8 -35 8 -72z m-186 -477 c-7 -17 -35 -35
-56 -35 -7 0 1 11 17 25 35 28 47 31 39 10z"/>
<path d="M4437 1893 c-2 -5 -12 -51 -22 -103 l-18 -96 -28 28 c-51 51 -134 32
-188 -43 -59 -81 -68 -226 -18 -277 39 -39 94 -35 149 8 l41 33 -5 -31 c-4
-30 -2 -32 24 -32 15 0 28 2 28 5 0 8 100 477 106 498 4 14 -1 17 -30 17 -19
0 -37 -3 -39 -7z m-86 -212 c19 -15 24 -28 23 -65 -3 -129 -110 -237 -160
-161 -33 51 4 192 60 226 39 24 48 24 77 0z"/>
<path d="M5027 1795 c-10 -21 -31 -42 -52 -52 -41 -19 -46 -43 -10 -43 14 0
25 -2 25 -5 0 -3 -12 -59 -26 -126 -22 -100 -24 -125 -14 -149 15 -35 58 -52
111 -44 34 6 39 10 39 34 0 25 -3 27 -37 26 -34 -1 -38 2 -41 27 -2 16 6 75
19 133 l22 104 47 0 c43 0 48 3 52 25 5 24 3 25 -43 25 l-48 0 10 32 c13 46
12 48 -14 48 -17 0 -28 -10 -40 -35z"/>
<path d="M2500 1743 c-84 -32 -147 -172 -121 -270 16 -59 50 -85 116 -91 32
-3 68 1 85 8 88 36 145 190 106 284 -22 52 -60 76 -120 75 -28 0 -58 -3 -66
-6z m110 -69 c9 -9 14 -33 14 -67 -2 -106 -44 -171 -110 -171 -48 0 -64 23
-64 93 0 125 93 210 160 145z"/>
<path d="M2830 1746 c0 -2 -25 -121 -55 -265 -30 -144 -55 -263 -55 -266 0 -3
15 -5 34 -5 38 0 34 -9 67 158 l12 63 26 -25 c35 -33 71 -41 113 -23 82 34
132 135 126 251 -3 60 -7 71 -31 92 -44 38 -97 33 -148 -13 l-42 -38 5 38 c4
35 2 37 -24 37 -15 0 -28 -2 -28 -4z m181 -67 c19 -19 21 -30 16 -78 -12 -133
-101 -215 -157 -144 -18 23 -20 36 -15 73 9 65 43 129 79 151 40 24 51 24 77
-2z"/>
<path d="M3295 1738 c-73 -40 -115 -121 -115 -222 0 -64 2 -70 33 -101 40 -40
92 -50 162 -33 44 12 50 16 53 42 3 24 1 28 -15 21 -10 -4 -40 -10 -66 -13
-40 -4 -52 -1 -72 18 -17 16 -25 34 -25 56 l0 32 63 4 c105 7 167 52 167 122
0 38 -10 55 -41 71 -33 18 -115 19 -144 3z m103 -50 c40 -40 -17 -98 -95 -98
-47 0 -48 1 -32 33 33 64 96 96 127 65z"/>
<path d="M3600 1745 c0 -8 -70 -339 -75 -352 -3 -9 8 -13 33 -13 l38 0 18 93
c27 140 65 207 126 222 19 4 31 0 45 -15 18 -20 18 -23 -8 -148 -15 -70 -27
-133 -27 -139 0 -8 13 -13 33 -13 l34 0 26 128 c34 159 34 186 2 217 -18 19
-35 25 -70 25 -38 0 -51 -6 -86 -37 l-42 -38 5 38 c4 35 2 37 -24 37 -15 0
-28 -2 -28 -5z"/>
<path d="M4637 1731 c-88 -57 -134 -238 -82 -318 8 -11 30 -26 50 -33 31 -10
41 -9 81 10 25 13 48 29 51 36 10 26 20 14 15 -17 -4 -29 -3 -30 24 -27 29 3
29 4 61 153 50 236 48 215 18 215 -20 0 -28 -7 -37 -30 l-10 -30 -28 30 c-23
24 -36 30 -72 30 -25 0 -55 -8 -71 -19z m131 -59 c29 -37 7 -144 -40 -197 -38
-44 -72 -54 -98 -30 -38 34 -21 164 28 218 34 39 83 42 110 9z"/>
<path d="M5289 1727 c-76 -51 -123 -219 -82 -297 35 -68 104 -75 169 -18 l34
30 0 -31 c0 -26 4 -31 24 -31 29 0 25 -9 66 185 17 83 34 158 36 168 4 13 -1
17 -25 17 -18 0 -31 -5 -31 -12 0 -7 -4 -20 -10 -28 -7 -12 -13 -10 -34 13
-33 36 -97 37 -147 4z m128 -53 c23 -23 25 -31 20 -74 -10 -84 -69 -170 -116
-170 -40 0 -56 26 -54 88 2 68 28 129 69 161 35 27 49 26 81 -5z"/>
<path d="M5160 1300 c-209 -33 -324 -152 -324 -335 0 -169 69 -246 309 -349
175 -75 212 -110 202 -190 -16 -117 -191 -146 -422 -71 -42 14 -78 25 -80 25
-3 0 -5 -49 -5 -110 l0 -109 53 -16 c166 -50 383 -39 510 27 62 31 132 103
158 161 32 73 32 191 -1 265 -39 90 -93 127 -358 248 -46 21 -94 51 -108 67
-56 67 -12 163 86 187 57 14 121 8 229 -21 40 -11 76 -18 78 -15 3 2 20 44 38
93 24 63 30 90 21 95 -6 3 -49 16 -94 28 -97 24 -214 32 -292 20z"/>
<path d="M1241 1268 c-5 -13 -90 -255 -189 -538 -100 -283 -188 -534 -196
-558 l-15 -43 130 3 131 3 42 135 42 135 214 0 213 0 42 -135 41 -135 132 -3
132 -3 -11 28 c-9 23 -337 951 -386 1091 l-15 42 -149 0 c-146 0 -150 -1 -158
-22z m237 -408 c40 -129 72 -239 72 -243 0 -4 -67 -7 -150 -7 -82 0 -150 2
-150 6 0 3 32 109 70 235 39 127 70 238 70 247 0 39 21 -18 88 -238z"/>
<path d="M1810 1190 l0 -100 155 0 155 0 0 -480 0 -480 120 0 120 0 0 480 0
480 160 0 160 0 0 100 0 100 -435 0 -435 0 0 -100z"/>
<path d="M2840 710 l0 -580 355 0 355 0 0 100 0 100 -235 0 -235 0 0 480 0
480 -120 0 -120 0 0 -580z"/>
<path d="M4020 1287 c0 -2 -90 -260 -200 -572 -110 -313 -200 -572 -200 -577
0 -4 58 -8 129 -8 l129 0 6 28 c4 15 23 78 42 140 l35 112 213 0 213 0 12 -42
c7 -24 26 -87 42 -140 l30 -98 129 0 c72 0 130 1 130 3 0 1 -92 261 -204 577
l-203 575 -151 3 c-84 1 -152 1 -152 -1z m240 -457 l67 -215 -150 -3 c-82 -1
-151 -1 -153 0 -1 2 21 82 51 178 29 96 63 209 76 250 l22 75 11 -35 c5 -19
40 -132 76 -250z"/>
</g>
</svg>
