<?xml version="1.0" encoding="UTF-8"?>
<svg xmlns="http://www.w3.org/2000/svg" xmlns:xlink="http://www.w3.org/1999/xlink" width="120pt" height="42pt" viewBox="0 0 267 95" version="1.1">
<g id="surface1">
<path style=" stroke:none;fill-rule:nonzero;fill:rgb(0%,0%,0%);fill-opacity:1;" d="M 26.523438 5.046875 C 21.402344 5.707031 15.867188 8.679688 12.066406 12.6875 C 5.445312 19.808594 3.753906 27.636719 6.523438 38.53125 C 8.589844 46.5 11.359375 50.132812 17.554688 52.867188 L 20.042969 54 L 20.605469 57.867188 C 21.167969 61.449219 21.121094 61.921875 20.230469 64.375 C 19.480469 66.402344 19.246094 68.101562 19.246094 71.730469 C 19.246094 75.078125 19.058594 76.492188 18.636719 76.589844 C 18.355469 76.730469 17.507812 76.917969 16.851562 77.0625 C 16.195312 77.203125 14.316406 78.476562 12.722656 79.9375 C 11.125 81.351562 9.484375 82.582031 9.011719 82.582031 C 8.589844 82.628906 7.792969 82.675781 7.273438 82.722656 C 6.429688 82.769531 6.335938 83.097656 6.335938 85.597656 C 6.335938 88.710938 6.710938 89.605469 7.980469 89.605469 C 8.589844 89.605469 8.777344 89.324219 8.589844 88.664062 C 8.027344 86.445312 11.40625 83.710938 17.980469 81.070312 C 20.089844 80.265625 22.0625 79.324219 22.34375 79.042969 C 22.625 78.757812 23.328125 76.636719 23.9375 74.375 C 24.550781 72.0625 25.253906 70.082031 25.582031 69.988281 C 25.863281 69.84375 27.273438 70.550781 28.730469 71.496094 L 31.355469 73.242188 L 30.230469 74.9375 C 29.480469 76.117188 29.105469 77.296875 29.105469 78.757812 C 29.105469 79.9375 28.777344 82.25 28.402344 83.945312 C 27.976562 85.644531 27.648438 87.34375 27.554688 87.722656 C 27.507812 88.238281 28.214844 88.476562 30.511719 88.757812 C 34.171875 89.183594 35.019531 88.617188 32.53125 87.4375 C 30.136719 86.257812 30.230469 85.125 33.28125 78.382812 C 34.597656 75.410156 35.675781 72.488281 35.675781 71.824219 C 35.675781 71.023438 34.832031 69.796875 32.859375 67.867188 C 31.308594 66.355469 29.808594 65.082031 29.574219 65.082031 C 28.871094 65.082031 29.011719 62.394531 29.855469 59.613281 L 30.652344 57.160156 L 33.796875 56.96875 C 36.378906 56.828125 37.316406 56.542969 38.960938 55.414062 C 40.039062 54.613281 41.355469 53.8125 41.871094 53.527344 C 42.339844 53.292969 43 52.539062 43.28125 51.875 C 43.5625 51.214844 44.734375 49.945312 45.863281 49.09375 C 48.722656 46.878906 51.964844 42.160156 53.417969 38.058594 C 55.105469 33.390625 55.152344 26.691406 53.605469 22.070312 C 49.664062 10.5625 38.347656 3.445312 26.523438 5.046875 Z M 37.363281 8.019531 C 40.699219 9.195312 44.59375 11.695312 45.910156 13.582031 L 46.894531 14.949219 L 43.375 15.46875 C 37.457031 16.410156 27.414062 20.609375 20.277344 25.089844 C 18.683594 26.125 17.273438 26.929688 17.179688 26.832031 C 16.710938 26.21875 15.535156 22.449219 15.019531 20.136719 L 14.457031 17.402344 L 16.148438 15.328125 C 17.085938 14.195312 18.496094 12.78125 19.246094 12.261719 L 20.652344 11.269531 L 22.625 12.6875 C 23.75 13.441406 25.582031 15.042969 26.757812 16.222656 C 28.636719 18.207031 30.042969 18.960938 30.042969 18.015625 C 30.042969 17.449219 25.910156 13.535156 23.5625 11.882812 L 21.542969 10.421875 L 23.5625 9.386719 C 28.402344 6.882812 32.8125 6.460938 37.363281 8.019531 Z M 21.730469 9.007812 C 20.886719 9.527344 19.949219 9.902344 19.621094 9.808594 C 19.246094 9.667969 19.621094 9.242188 20.417969 8.820312 C 22.484375 7.6875 23.515625 7.875 21.730469 9.007812 Z M 18.777344 10.753906 C 18.777344 10.941406 17.792969 12.074219 16.617188 13.207031 L 14.410156 15.328125 L 14.738281 13.914062 C 14.925781 13.113281 15.582031 12.023438 16.242188 11.410156 C 17.414062 10.375 18.777344 10 18.777344 10.753906 Z M 11.597656 20.421875 C 9.90625 24.003906 9.011719 27.257812 8.636719 31.550781 C 8.308594 35.558594 7.839844 36.40625 7.324219 33.910156 C 6.195312 28.296875 7.792969 21.410156 11.453125 16.269531 L 12.441406 14.855469 L 12.582031 16.410156 C 12.675781 17.308594 12.253906 18.914062 11.597656 20.421875 Z M 48.582031 18.394531 C 48.957031 19.148438 49.289062 20.230469 49.289062 20.84375 C 49.289062 22.070312 45.722656 25.65625 41.402344 28.675781 L 38.535156 30.652344 L 37.269531 28.4375 C 34.972656 24.382812 33.28125 22.117188 32.8125 22.449219 C 32.53125 22.589844 32.671875 23.203125 33.1875 23.957031 C 35.207031 27.070312 37.082031 30.417969 37.082031 30.9375 C 37.082031 31.644531 33.1875 33.957031 28.449219 36.03125 C 26.101562 37.019531 25.066406 37.730469 25.300781 38.109375 C 25.535156 38.484375 27.367188 37.824219 31.496094 35.746094 C 34.691406 34.097656 37.457031 32.730469 37.691406 32.636719 C 38.160156 32.398438 40.179688 37.019531 41.074219 40.464844 C 42.246094 45.039062 42.058594 46.40625 40.085938 48.011719 C 36.847656 50.699219 36.472656 50.792969 33.9375 49.140625 C 31.730469 47.679688 31.683594 47.679688 31.542969 48.671875 C 31.402344 49.285156 31.824219 49.992188 32.671875 50.699219 L 33.9375 51.734375 L 32.011719 52.207031 C 29.949219 52.726562 27.695312 52.539062 27.695312 51.78125 C 27.695312 51.5 28.214844 50.886719 28.871094 50.367188 C 31.261719 48.484375 29.808594 44.285156 26.992188 44.992188 C 25.535156 45.367188 24.832031 46.972656 25.207031 49.285156 L 25.488281 50.980469 L 23.65625 50.648438 C 22.671875 50.507812 21.449219 50.132812 20.980469 49.894531 C 20.511719 49.660156 19.105469 49.140625 17.839844 48.765625 C 15.628906 48.105469 13.753906 46.359375 12.253906 43.53125 C 11.503906 42.066406 11.503906 42.113281 14.035156 41.734375 C 18.027344 41.171875 20.980469 40.273438 20.042969 39.851562 C 19.621094 39.664062 18.308594 39.757812 17.132812 40.039062 C 16.007812 40.324219 14.128906 40.558594 12.957031 40.558594 L 10.890625 40.558594 L 10.375 38.296875 C 9.90625 36.078125 9.90625 36.078125 11.878906 34.050781 C 12.957031 32.917969 14.410156 31.597656 15.066406 31.078125 L 16.335938 30.183594 L 18.730469 34.332031 C 23.234375 41.972656 25.675781 44.753906 26.898438 43.578125 C 27.039062 43.4375 26.050781 41.785156 24.691406 39.898438 C 21.871094 36.078125 18.308594 30.089844 18.308594 29.144531 C 18.308594 28.535156 24.222656 24.808594 28.871094 22.496094 C 34.832031 19.570312 42.714844 17.070312 46.097656 17.023438 C 47.597656 16.976562 47.972656 17.214844 48.582031 18.394531 Z M 14.269531 24.289062 L 15.488281 28.0625 L 12.769531 30.511719 L 10.09375 32.917969 L 9.953125 31.457031 C 9.859375 30.605469 10.046875 28.769531 10.328125 27.351562 C 10.890625 24.855469 12.675781 20.089844 12.957031 20.375 C 13.003906 20.46875 13.613281 22.210938 14.269531 24.289062 Z M 52.292969 24.476562 C 52.714844 26.316406 53.042969 28.628906 53.042969 29.617188 C 53.042969 35.277344 50.273438 41.972656 46.285156 45.980469 C 42.339844 49.945312 41.636719 49.140625 45.113281 44.660156 C 49.335938 39.285156 51.355469 33.015625 51.070312 25.890625 C 51.023438 23.296875 51.070312 21.222656 51.261719 21.222656 C 51.402344 21.222656 51.917969 22.683594 52.292969 24.476562 Z M 50.226562 26.785156 C 50.226562 30.84375 49.195312 35.132812 47.363281 38.8125 C 44.734375 44.144531 42.714844 46.027344 42.714844 43.152344 C 42.714844 41.925781 40.980469 36.3125 39.757812 33.4375 L 39.007812 31.738281 L 42.433594 29.335938 C 44.3125 27.96875 46.660156 26.03125 47.644531 24.996094 C 48.628906 24.003906 49.617188 23.25 49.851562 23.394531 C 50.039062 23.535156 50.226562 25.042969 50.226562 26.785156 Z M 41.496094 49.285156 C 41.167969 50.085938 39.851562 50.933594 38.867188 50.933594 C 38.535156 50.933594 38.914062 50.414062 39.664062 49.753906 C 41.308594 48.433594 41.871094 48.292969 41.496094 49.285156 Z M 41.496094 49.285156 "/>
<path style=" stroke:none;fill-rule:nonzero;fill:rgb(0%,0%,0%);fill-opacity:1;" d="M 208.277344 5.515625 C 208.183594 5.753906 207.714844 7.925781 207.242188 10.375 L 206.398438 14.902344 L 205.082031 13.582031 C 202.691406 11.175781 198.792969 12.074219 196.261719 15.609375 C 193.492188 19.429688 193.070312 26.269531 195.417969 28.675781 C 197.246094 30.511719 199.828125 30.324219 202.410156 28.296875 L 204.332031 26.738281 L 204.097656 28.203125 C 203.910156 29.617188 204.003906 29.710938 205.222656 29.710938 C 205.929688 29.710938 206.539062 29.617188 206.539062 29.476562 C 206.539062 29.097656 211.234375 6.980469 211.515625 5.988281 C 211.703125 5.328125 211.46875 5.1875 210.109375 5.1875 C 209.214844 5.1875 208.371094 5.328125 208.277344 5.515625 Z M 204.238281 15.515625 C 205.128906 16.222656 205.363281 16.835938 205.316406 18.582031 C 205.175781 24.664062 200.15625 29.757812 197.808594 26.171875 C 196.261719 23.769531 197.996094 17.117188 200.625 15.515625 C 202.457031 14.382812 202.878906 14.382812 204.238281 15.515625 Z M 204.238281 15.515625 "/>
<path style=" stroke:none;fill-rule:nonzero;fill:rgb(0%,0%,0%);fill-opacity:1;" d="M 235.972656 10.140625 C 235.503906 11.128906 234.515625 12.121094 233.53125 12.59375 C 231.605469 13.488281 231.371094 14.621094 233.0625 14.621094 C 233.71875 14.621094 234.234375 14.714844 234.234375 14.855469 C 234.234375 14.996094 233.671875 17.640625 233.015625 20.796875 C 231.980469 25.511719 231.886719 26.691406 232.355469 27.824219 C 233.0625 29.476562 235.082031 30.277344 237.566406 29.898438 C 239.164062 29.617188 239.398438 29.429688 239.398438 28.296875 C 239.398438 27.117188 239.257812 27.023438 237.660156 27.070312 C 236.066406 27.117188 235.878906 26.976562 235.738281 25.796875 C 235.644531 25.042969 236.019531 22.257812 236.628906 19.523438 L 237.660156 14.621094 L 239.867188 14.621094 C 241.886719 14.621094 242.121094 14.480469 242.308594 13.441406 C 242.542969 12.308594 242.449219 12.261719 240.289062 12.261719 L 238.035156 12.261719 L 238.503906 10.753906 C 239.117188 8.585938 239.070312 8.488281 237.847656 8.488281 C 237.050781 8.488281 236.535156 8.960938 235.972656 10.140625 Z M 235.972656 10.140625 "/>
<path style=" stroke:none;fill-rule:nonzero;fill:rgb(0%,0%,0%);fill-opacity:1;" d="M 117.351562 12.59375 C 113.410156 14.101562 110.453125 20.703125 111.675781 25.324219 C 112.425781 28.109375 114.019531 29.335938 117.117188 29.617188 C 118.621094 29.757812 120.308594 29.570312 121.105469 29.242188 C 125.238281 27.542969 127.914062 20.277344 126.082031 15.84375 C 125.050781 13.394531 123.265625 12.261719 120.449219 12.308594 C 119.136719 12.308594 117.726562 12.449219 117.351562 12.59375 Z M 122.515625 15.84375 C 122.9375 16.269531 123.171875 17.402344 123.171875 19.007812 C 123.078125 24.003906 121.105469 27.070312 118.011719 27.070312 C 115.753906 27.070312 115.003906 25.984375 115.003906 22.683594 C 115.003906 16.789062 119.371094 12.78125 122.515625 15.84375 Z M 122.515625 15.84375 "/>
<path style=" stroke:none;fill-rule:nonzero;fill:rgb(0%,0%,0%);fill-opacity:1;" d="M 132.84375 12.449219 C 132.84375 12.546875 131.667969 18.160156 130.261719 24.949219 C 128.855469 31.738281 127.679688 37.351562 127.679688 37.492188 C 127.679688 37.636719 128.386719 37.730469 129.277344 37.730469 C 131.058594 37.730469 130.871094 38.15625 132.417969 30.277344 L 132.984375 27.304688 L 134.203125 28.488281 C 135.847656 30.042969 137.535156 30.417969 139.507812 29.570312 C 143.359375 27.96875 145.707031 23.203125 145.425781 17.734375 C 145.285156 14.902344 145.097656 14.382812 143.96875 13.394531 C 141.902344 11.601562 139.414062 11.835938 137.019531 14.007812 L 135.050781 15.796875 L 135.285156 14.007812 C 135.472656 12.355469 135.378906 12.261719 134.15625 12.261719 C 133.453125 12.261719 132.84375 12.355469 132.84375 12.449219 Z M 141.339844 15.609375 C 142.230469 16.503906 142.324219 17.023438 142.089844 19.289062 C 141.527344 25.5625 137.347656 29.429688 134.722656 26.078125 C 133.875 24.996094 133.78125 24.382812 134.015625 22.636719 C 134.4375 19.570312 136.035156 16.550781 137.722656 15.515625 C 139.601562 14.382812 140.117188 14.382812 141.339844 15.609375 Z M 141.339844 15.609375 "/>
<path style=" stroke:none;fill-rule:nonzero;fill:rgb(0%,0%,0%);fill-opacity:1;" d="M 154.667969 12.828125 C 151.246094 14.714844 149.273438 18.535156 149.273438 23.296875 C 149.273438 26.316406 149.367188 26.597656 150.820312 28.0625 C 152.699219 29.945312 155.136719 30.417969 158.425781 29.617188 C 160.492188 29.050781 160.773438 28.863281 160.914062 27.636719 C 161.054688 26.503906 160.960938 26.316406 160.210938 26.644531 C 159.742188 26.832031 158.332031 27.117188 157.109375 27.257812 C 155.230469 27.449219 154.667969 27.304688 153.730469 26.410156 C 152.933594 25.65625 152.558594 24.808594 152.558594 23.769531 L 152.558594 22.257812 L 155.515625 22.070312 C 160.445312 21.738281 163.355469 19.621094 163.355469 16.316406 C 163.355469 14.527344 162.886719 13.726562 161.429688 12.96875 C 159.882812 12.121094 156.03125 12.074219 154.667969 12.828125 Z M 159.503906 15.1875 C 161.382812 17.070312 158.707031 19.808594 155.042969 19.808594 C 152.839844 19.808594 152.792969 19.761719 153.542969 18.253906 C 155.089844 15.234375 158.050781 13.726562 159.503906 15.1875 Z M 159.503906 15.1875 "/>
<path style=" stroke:none;fill-rule:nonzero;fill:rgb(0%,0%,0%);fill-opacity:1;" d="M 168.988281 12.496094 C 168.988281 12.875 165.699219 28.488281 165.464844 29.097656 C 165.324219 29.523438 165.84375 29.710938 167.015625 29.710938 L 168.800781 29.710938 L 169.644531 25.324219 C 170.910156 18.722656 172.695312 15.5625 175.558594 14.855469 C 176.453125 14.667969 177.015625 14.855469 177.671875 15.5625 C 178.519531 16.503906 178.519531 16.648438 177.296875 22.542969 C 176.59375 25.84375 176.027344 28.816406 176.027344 29.097656 C 176.027344 29.476562 176.640625 29.710938 177.578125 29.710938 L 179.175781 29.710938 L 180.394531 23.675781 C 181.988281 16.175781 181.988281 14.902344 180.488281 13.441406 C 179.644531 12.546875 178.847656 12.261719 177.203125 12.261719 C 175.417969 12.261719 174.808594 12.546875 173.164062 14.007812 L 171.191406 15.796875 L 171.425781 14.007812 C 171.613281 12.355469 171.519531 12.261719 170.300781 12.261719 C 169.597656 12.261719 168.988281 12.355469 168.988281 12.496094 Z M 168.988281 12.496094 "/>
<path style=" stroke:none;fill-rule:nonzero;fill:rgb(0%,0%,0%);fill-opacity:1;" d="M 217.664062 13.160156 C 213.535156 15.84375 211.375 24.382812 213.816406 28.15625 C 214.191406 28.675781 215.222656 29.382812 216.164062 29.710938 C 217.617188 30.183594 218.089844 30.136719 219.964844 29.242188 C 221.136719 28.628906 222.21875 27.875 222.359375 27.542969 C 222.828125 26.316406 223.296875 26.878906 223.0625 28.34375 C 222.875 29.710938 222.921875 29.757812 224.1875 29.617188 C 225.550781 29.476562 225.550781 29.429688 227.054688 22.402344 C 229.402344 11.269531 229.308594 12.261719 227.898438 12.261719 C 226.960938 12.261719 226.585938 12.59375 226.160156 13.675781 L 225.691406 15.089844 L 224.378906 13.675781 C 223.296875 12.546875 222.6875 12.261719 220.996094 12.261719 C 219.824219 12.261719 218.417969 12.640625 217.664062 13.160156 Z M 223.8125 15.941406 C 225.175781 17.6875 224.140625 22.734375 221.933594 25.230469 C 220.152344 27.304688 218.558594 27.777344 217.335938 26.644531 C 215.550781 25.042969 216.351562 18.914062 218.652344 16.363281 C 220.246094 14.527344 222.546875 14.382812 223.8125 15.941406 Z M 223.8125 15.941406 "/>
<path style=" stroke:none;fill-rule:nonzero;fill:rgb(0%,0%,0%);fill-opacity:1;" d="M 248.269531 13.347656 C 244.703125 15.75 242.496094 23.675781 244.421875 27.351562 C 246.066406 30.558594 249.304688 30.890625 252.355469 28.203125 L 253.949219 26.785156 L 253.949219 28.25 C 253.949219 29.476562 254.136719 29.710938 255.074219 29.710938 C 256.4375 29.710938 256.25 30.136719 258.175781 20.984375 C 258.972656 17.070312 259.773438 13.535156 259.867188 13.066406 C 260.054688 12.449219 259.820312 12.261719 258.691406 12.261719 C 257.847656 12.261719 257.234375 12.496094 257.234375 12.828125 C 257.234375 13.160156 257.046875 13.773438 256.765625 14.148438 C 256.4375 14.714844 256.15625 14.621094 255.167969 13.535156 C 253.621094 11.835938 250.617188 11.789062 248.269531 13.347656 Z M 254.277344 15.84375 C 255.355469 16.929688 255.449219 17.308594 255.214844 19.335938 C 254.746094 23.296875 251.980469 27.351562 249.773438 27.351562 C 247.894531 27.351562 247.144531 26.125 247.238281 23.203125 C 247.332031 19.996094 248.550781 17.117188 250.476562 15.609375 C 252.121094 14.335938 252.777344 14.382812 254.277344 15.84375 Z M 254.277344 15.84375 "/>
<path style=" stroke:none;fill-rule:nonzero;fill:rgb(0%,0%,0%);fill-opacity:1;" d="M 242.214844 33.484375 C 232.402344 35.039062 227.007812 40.652344 227.007812 49.285156 C 227.007812 57.253906 230.246094 60.882812 241.511719 65.742188 C 249.726562 69.28125 251.464844 70.929688 250.992188 74.703125 C 250.242188 80.21875 242.027344 81.585938 231.183594 78.050781 C 229.214844 77.390625 227.523438 76.871094 227.429688 76.871094 C 227.289062 76.871094 227.195312 79.183594 227.195312 82.058594 L 227.195312 87.199219 L 229.683594 87.957031 C 237.472656 90.3125 247.660156 89.792969 253.621094 86.679688 C 256.53125 85.21875 259.820312 81.824219 261.039062 79.089844 C 262.542969 75.644531 262.542969 70.082031 260.992188 66.589844 C 259.160156 62.347656 256.625 60.601562 244.1875 54.894531 C 242.027344 53.90625 239.773438 52.492188 239.117188 51.734375 C 236.488281 48.578125 238.550781 44.050781 243.15625 42.917969 C 245.832031 42.257812 248.832031 42.539062 253.902344 43.90625 C 255.78125 44.425781 257.46875 44.753906 257.5625 44.613281 C 257.707031 44.519531 258.503906 42.539062 259.347656 40.226562 C 260.476562 37.257812 260.757812 35.984375 260.335938 35.746094 C 260.054688 35.605469 258.035156 34.992188 255.921875 34.429688 C 251.371094 33.296875 245.878906 32.917969 242.214844 33.484375 Z M 242.214844 33.484375 "/>
<path style=" stroke:none;fill-rule:nonzero;fill:rgb(0%,0%,0%);fill-opacity:1;" d="M 58.253906 34.992188 C 58.019531 35.605469 54.027344 47.019531 49.382812 60.367188 C 44.6875 73.714844 40.554688 85.550781 40.179688 86.679688 L 39.476562 88.710938 L 45.582031 88.570312 L 51.730469 88.429688 L 55.671875 75.691406 L 75.714844 75.691406 L 77.6875 82.058594 L 79.613281 88.429688 L 92.003906 88.710938 L 91.488281 87.390625 C 91.066406 86.304688 75.667969 42.539062 73.367188 35.9375 L 72.664062 33.957031 L 65.667969 33.957031 C 58.816406 33.957031 58.628906 34.003906 58.253906 34.992188 Z M 69.378906 54.234375 C 71.253906 60.320312 72.757812 65.507812 72.757812 65.695312 C 72.757812 65.882812 69.613281 66.023438 65.71875 66.023438 C 61.871094 66.023438 58.675781 65.929688 58.675781 65.742188 C 58.675781 65.601562 60.179688 60.601562 61.964844 54.660156 C 63.792969 48.671875 65.246094 43.4375 65.246094 43.011719 C 65.246094 41.171875 66.234375 43.859375 69.378906 54.234375 Z M 69.378906 54.234375 "/>
<path style=" stroke:none;fill-rule:nonzero;fill:rgb(0%,0%,0%);fill-opacity:1;" d="M 84.964844 38.671875 L 84.964844 43.390625 L 99.515625 43.390625 L 99.515625 88.664062 L 110.78125 88.664062 L 110.78125 43.390625 L 125.800781 43.390625 L 125.800781 33.957031 L 84.964844 33.957031 Z M 84.964844 38.671875 "/>
<path style=" stroke:none;fill-rule:nonzero;fill:rgb(0%,0%,0%);fill-opacity:1;" d="M 133.3125 61.308594 L 133.3125 88.664062 L 166.640625 88.664062 L 166.640625 79.230469 L 144.578125 79.230469 L 144.578125 33.957031 L 133.3125 33.957031 Z M 133.3125 61.308594 "/>
<path style=" stroke:none;fill-rule:nonzero;fill:rgb(0%,0%,0%);fill-opacity:1;" d="M 188.699219 34.097656 C 188.699219 34.191406 184.476562 46.359375 179.316406 61.074219 C 174.148438 75.835938 169.925781 88.050781 169.925781 88.285156 C 169.925781 88.476562 172.648438 88.664062 175.980469 88.664062 L 182.035156 88.664062 L 182.316406 87.34375 C 182.503906 86.632812 183.398438 83.664062 184.289062 80.738281 L 185.933594 75.457031 L 205.929688 75.457031 L 206.492188 77.4375 C 206.820312 78.570312 207.714844 81.539062 208.464844 84.042969 L 209.875 88.664062 L 215.929688 88.664062 C 219.308594 88.664062 222.027344 88.617188 222.027344 88.523438 C 222.027344 88.476562 217.710938 76.210938 212.457031 61.308594 L 202.925781 34.191406 L 195.839844 34.050781 C 191.894531 34.003906 188.699219 34.003906 188.699219 34.097656 Z M 199.96875 55.648438 L 203.113281 65.789062 L 196.074219 65.929688 C 192.222656 65.976562 188.984375 65.976562 188.890625 65.929688 C 188.84375 65.835938 189.875 62.0625 191.285156 57.539062 C 192.644531 53.011719 194.242188 47.679688 194.851562 45.746094 L 195.886719 42.207031 L 196.402344 43.859375 C 196.636719 44.753906 198.277344 50.085938 199.96875 55.648438 Z M 199.96875 55.648438 "/>
</g>
</svg>
